<?xml version="1.0" encoding="utf-8" standalone="no"?>
<!DOCTYPE svg PUBLIC "-//W3C//DTD SVG 1.1//EN"
  "http://www.w3.org/Graphics/SVG/1.1/DTD/svg11.dtd">
<!-- Created with matplotlib (https://matplotlib.org/) -->
<svg height="576pt" version="1.1" viewBox="0 0 712.438349 576" width="712.438349pt" xmlns="http://www.w3.org/2000/svg" xmlns:xlink="http://www.w3.org/1999/xlink">
 <defs>
  <style type="text/css">
*{stroke-linecap:butt;stroke-linejoin:round;}
  </style>
 </defs>
 <g id="figure_1">
  <g id="patch_1">
   <path d="M 0 576 
L 712.438349 576 
L 712.438349 0 
L 0 0 
z
" style="fill:none;opacity:0;"/>
  </g>
  <g id="axes_1">
   <g id="PathCollection_1">
    <defs>
     <path d="M 0 0 
C 0 0 0 0 0 0 
C 0 0 0 0 0 0 
C 0 0 0 0 0 0 
C 0 0 0 0 0 0 
C 0 0 0 0 0 0 
C 0 0 0 0 0 0 
C 0 0 0 0 0 0 
C 0 0 0 0 0 0 
z
" id="C0_0_d0196d096c"/>
    </defs>
    <g clip-path="url(#pb350940244)">
     <use style="fill:#1f77b4;" x="401.489266" xlink:href="#C0_0_d0196d096c" y="11.076923"/>
    </g>
    <g clip-path="url(#pb350940244)">
     <use style="fill:#1f77b4;" x="398.343626" xlink:href="#C0_0_d0196d096c" y="13.830484"/>
    </g>
    <g clip-path="url(#pb350940244)">
     <use style="fill:#1f77b4;" x="615.930111" xlink:href="#C0_0_d0196d096c" y="462.647968"/>
    </g>
    <g clip-path="url(#pb350940244)">
     <use style="fill:#1f77b4;" x="257.702733" xlink:href="#C0_0_d0196d096c" y="317.231593"/>
    </g>
    <g clip-path="url(#pb350940244)">
     <use style="fill:#1f77b4;" x="258.067898" xlink:href="#C0_0_d0196d096c" y="245.7164"/>
    </g>
    <g clip-path="url(#pb350940244)">
     <use style="fill:#1f77b4;" x="258.433064" xlink:href="#C0_0_d0196d096c" y="179.360103"/>
    </g>
    <g clip-path="url(#pb350940244)">
     <use style="fill:#1f77b4;" x="258.798229" xlink:href="#C0_0_d0196d096c" y="113.906613"/>
    </g>
    <g clip-path="url(#pb350940244)">
     <use style="fill:#1f77b4;" x="303.713589" xlink:href="#C0_0_d0196d096c" y="539.644488"/>
    </g>
    <g clip-path="url(#pb350940244)">
     <use style="fill:#1f77b4;" x="301.564329" xlink:href="#C0_0_d0196d096c" y="478.685685"/>
    </g>
    <g clip-path="url(#pb350940244)">
     <use style="fill:#1f77b4;" x="298.966437" xlink:href="#C0_0_d0196d096c" y="425.826349"/>
    </g>
    <g clip-path="url(#pb350940244)">
     <use style="fill:#1f77b4;" x="297.088443" xlink:href="#C0_0_d0196d096c" y="384.684156"/>
    </g>
    <g clip-path="url(#pb350940244)">
     <use style="fill:#1f77b4;" x="295.226099" xlink:href="#C0_0_d0196d096c" y="317.392809"/>
    </g>
    <g clip-path="url(#pb350940244)">
     <use style="fill:#1f77b4;" x="86.857434" xlink:href="#C0_0_d0196d096c" y="316.522245"/>
    </g>
    <g clip-path="url(#pb350940244)">
     <use style="fill:#1f77b4;" x="481.481382" xlink:href="#C0_0_d0196d096c" y="29.848855"/>
    </g>
    <g clip-path="url(#pb350940244)">
     <use style="fill:#1f77b4;" x="239.340123" xlink:href="#C0_0_d0196d096c" y="478.705031"/>
    </g>
    <g clip-path="url(#pb350940244)">
     <use style="fill:#1f77b4;" x="601.427823" xlink:href="#C0_0_d0196d096c" y="564.923077"/>
    </g>
    <g clip-path="url(#pb350940244)">
     <use style="fill:#1f77b4;" x="582.726132" xlink:href="#C0_0_d0196d096c" y="263.42431"/>
    </g>
    <g clip-path="url(#pb350940244)">
     <use style="fill:#1f77b4;" x="633.301557" xlink:href="#C0_0_d0196d096c" y="265.275064"/>
    </g>
    <g clip-path="url(#pb350940244)">
     <use style="fill:#1f77b4;" x="614.370333" xlink:href="#C0_0_d0196d096c" y="33.537466"/>
    </g>
    <g clip-path="url(#pb350940244)">
     <use style="fill:#1f77b4;" x="241.791949" xlink:href="#C0_0_d0196d096c" y="540.676267"/>
    </g>
    <g clip-path="url(#pb350940244)">
     <use style="fill:#1f77b4;" x="191.967722" xlink:href="#C0_0_d0196d096c" y="541.540382"/>
    </g>
    <g clip-path="url(#pb350940244)">
     <use style="fill:#1f77b4;" x="79.136792" xlink:href="#C0_0_d0196d096c" y="543.255715"/>
    </g>
    <g clip-path="url(#pb350940244)">
     <use style="fill:#1f77b4;" x="393.262608" xlink:href="#C0_0_d0196d096c" y="555.662859"/>
    </g>
    <g clip-path="url(#pb350940244)">
     <use style="fill:#1f77b4;" x="398.500125" xlink:href="#C0_0_d0196d096c" y="424.601112"/>
    </g>
    <g clip-path="url(#pb350940244)">
     <use style="fill:#1f77b4;" x="399.073957" xlink:href="#C0_0_d0196d096c" y="382.169194"/>
    </g>
    <g clip-path="url(#pb350940244)">
     <use style="fill:#1f77b4;" x="399.778205" xlink:href="#C0_0_d0196d096c" y="318.185989"/>
    </g>
    <g clip-path="url(#pb350940244)">
     <use style="fill:#1f77b4;" x="399.892971" xlink:href="#C0_0_d0196d096c" y="258.433079"/>
    </g>
    <g clip-path="url(#pb350940244)">
     <use style="fill:#1f77b4;" x="399.908621" xlink:href="#C0_0_d0196d096c" y="246.599861"/>
    </g>
    <g clip-path="url(#pb350940244)">
     <use style="fill:#1f77b4;" x="400.20597" xlink:href="#C0_0_d0196d096c" y="197.745118"/>
    </g>
    <g clip-path="url(#pb350940244)">
     <use style="fill:#1f77b4;" x="400.22162" xlink:href="#C0_0_d0196d096c" y="180.7788"/>
    </g>
    <g clip-path="url(#pb350940244)">
     <use style="fill:#1f77b4;" x="400.654602" xlink:href="#C0_0_d0196d096c" y="135.683602"/>
    </g>
    <g clip-path="url(#pb350940244)">
     <use style="fill:#1f77b4;" x="401.35885" xlink:href="#C0_0_d0196d096c" y="17.58358"/>
    </g>
    <g clip-path="url(#pb350940244)">
     <use style="fill:#1f77b4;" x="85.840187" xlink:href="#C0_0_d0196d096c" y="33.079614"/>
    </g>
    <g clip-path="url(#pb350940244)">
     <use style="fill:#1f77b4;" x="618.56452" xlink:href="#C0_0_d0196d096c" y="22.935935"/>
    </g>
    <g clip-path="url(#pb350940244)">
     <use style="fill:#1f77b4;" x="610.097896" xlink:href="#C0_0_d0196d096c" y="31.067644"/>
    </g>
    <g clip-path="url(#pb350940244)">
     <use style="fill:#1f77b4;" x="286.289976" xlink:href="#C0_0_d0196d096c" y="80.631735"/>
    </g>
    <g clip-path="url(#pb350940244)">
     <use style="fill:#1f77b4;" x="204.811115" xlink:href="#C0_0_d0196d096c" y="82.308377"/>
    </g>
    <g clip-path="url(#pb350940244)">
     <use style="fill:#1f77b4;" x="500.798638" xlink:href="#C0_0_d0196d096c" y="525.52201"/>
    </g>
    <g clip-path="url(#pb350940244)">
     <use style="fill:#1f77b4;" x="478.627874" xlink:href="#C0_0_d0196d096c" y="511.78645"/>
    </g>
    <g clip-path="url(#pb350940244)">
     <use style="fill:#1f77b4;" x="482.576879" xlink:href="#C0_0_d0196d096c" y="495.045834"/>
    </g>
    <g clip-path="url(#pb350940244)">
     <use style="fill:#1f77b4;" x="452.231624" xlink:href="#C0_0_d0196d096c" y="505.144372"/>
    </g>
    <g clip-path="url(#pb350940244)">
     <use style="fill:#1f77b4;" x="237.566462" xlink:href="#C0_0_d0196d096c" y="426.600184"/>
    </g>
    <g clip-path="url(#pb350940244)">
     <use style="fill:#1f77b4;" x="188.895115" xlink:href="#C0_0_d0196d096c" y="427.18056"/>
    </g>
    <g clip-path="url(#pb350940244)">
     <use style="fill:#1f77b4;" x="563.236726" xlink:href="#C0_0_d0196d096c" y="46.937697"/>
    </g>
    <g clip-path="url(#pb350940244)">
     <use style="fill:#1f77b4;" x="596.665022" xlink:href="#C0_0_d0196d096c" y="39.07683"/>
    </g>
    <g clip-path="url(#pb350940244)">
     <use style="fill:#1f77b4;" x="336.995818" xlink:href="#C0_0_d0196d096c" y="14.430205"/>
    </g>
    <g clip-path="url(#pb350940244)">
     <use style="fill:#1f77b4;" x="404.817489" xlink:href="#C0_0_d0196d096c" y="14.397962"/>
    </g>
    <g clip-path="url(#pb350940244)">
     <use style="fill:#1f77b4;" x="507.564634" xlink:href="#C0_0_d0196d096c" y="261.702529"/>
    </g>
    <g clip-path="url(#pb350940244)">
     <use style="fill:#1f77b4;" x="206.42306" xlink:href="#C0_0_d0196d096c" y="24.141827"/>
    </g>
    <g clip-path="url(#pb350940244)">
     <use style="fill:#1f77b4;" x="104.463629" xlink:href="#C0_0_d0196d096c" y="281.73839"/>
    </g>
    <g clip-path="url(#pb350940244)">
     <use style="fill:#1f77b4;" x="471.115898" xlink:href="#C0_0_d0196d096c" y="426.342239"/>
    </g>
    <g clip-path="url(#pb350940244)">
     <use style="fill:#1f77b4;" x="494.747324" xlink:href="#C0_0_d0196d096c" y="324.06713"/>
    </g>
    <g clip-path="url(#pb350940244)">
     <use style="fill:#1f77b4;" x="520.063728" xlink:href="#C0_0_d0196d096c" y="200.472884"/>
    </g>
    <g clip-path="url(#pb350940244)">
     <use style="fill:#1f77b4;" x="552.062661" xlink:href="#C0_0_d0196d096c" y="45.157878"/>
    </g>
    <g clip-path="url(#pb350940244)">
     <use style="fill:#1f77b4;" x="356.787789" xlink:href="#C0_0_d0196d096c" y="513.933841"/>
    </g>
    <g clip-path="url(#pb350940244)">
     <use style="fill:#1f77b4;" x="117.792171" xlink:href="#C0_0_d0196d096c" y="542.610853"/>
    </g>
    <g clip-path="url(#pb350940244)">
     <use style="fill:#1f77b4;" x="118.000837" xlink:href="#C0_0_d0196d096c" y="427.760935"/>
    </g>
    <g clip-path="url(#pb350940244)">
     <use style="fill:#1f77b4;" x="120.134447" xlink:href="#C0_0_d0196d096c" y="317.934493"/>
    </g>
    <g clip-path="url(#pb350940244)">
     <use style="fill:#1f77b4;" x="123.420936" xlink:href="#C0_0_d0196d096c" y="243.955927"/>
    </g>
    <g clip-path="url(#pb350940244)">
     <use style="fill:#1f77b4;" x="553.215541" xlink:href="#C0_0_d0196d096c" y="449.157456"/>
    </g>
    <g clip-path="url(#pb350940244)">
     <use style="fill:#1f77b4;" x="546.256529" xlink:href="#C0_0_d0196d096c" y="73.364141"/>
    </g>
    <g clip-path="url(#pb350940244)">
     <use style="fill:#1f77b4;" x="121.391659" xlink:href="#C0_0_d0196d096c" y="275.928184"/>
    </g>
    <g clip-path="url(#pb350940244)">
     <use style="fill:#1f77b4;" x="351.341606" xlink:href="#C0_0_d0196d096c" y="318.1344"/>
    </g>
    <g clip-path="url(#pb350940244)">
     <use style="fill:#1f77b4;" x="156.604049" xlink:href="#C0_0_d0196d096c" y="178.521783"/>
    </g>
    <g clip-path="url(#pb350940244)">
     <use style="fill:#1f77b4;" x="460.317432" xlink:href="#C0_0_d0196d096c" y="140.797357"/>
    </g>
    <g clip-path="url(#pb350940244)">
     <use style="fill:#1f77b4;" x="120.619595" xlink:href="#C0_0_d0196d096c" y="249.488843"/>
    </g>
    <g clip-path="url(#pb350940244)">
     <use style="fill:#1f77b4;" x="569.272391" xlink:href="#C0_0_d0196d096c" y="379.38339"/>
    </g>
    <g clip-path="url(#pb350940244)">
     <use style="fill:#1f77b4;" x="581.34372" xlink:href="#C0_0_d0196d096c" y="325.356854"/>
    </g>
    <g clip-path="url(#pb350940244)">
     <use style="fill:#1f77b4;" x="588.594864" xlink:href="#C0_0_d0196d096c" y="201.736814"/>
    </g>
    <g clip-path="url(#pb350940244)">
     <use style="fill:#1f77b4;" x="623.807253" xlink:href="#C0_0_d0196d096c" y="325.356854"/>
    </g>
    <g clip-path="url(#pb350940244)">
     <use style="fill:#1f77b4;" x="616.639576" xlink:href="#C0_0_d0196d096c" y="60.944099"/>
    </g>
    <g clip-path="url(#pb350940244)">
     <use style="fill:#1f77b4;" x="626.457312" xlink:href="#C0_0_d0196d096c" y="23.838742"/>
    </g>
    <g clip-path="url(#pb350940244)">
     <use style="fill:#1f77b4;" x="351.659822" xlink:href="#C0_0_d0196d096c" y="383.136487"/>
    </g>
   </g>
   <g id="PathCollection_2">
    <defs>
     <path d="M 0 3 
C 0.795609 3 1.55874 2.683901 2.12132 2.12132 
C 2.683901 1.55874 3 0.795609 3 0 
C 3 -0.795609 2.683901 -1.55874 2.12132 -2.12132 
C 1.55874 -2.683901 0.795609 -3 0 -3 
C -0.795609 -3 -1.55874 -2.683901 -2.12132 -2.12132 
C -2.683901 -1.55874 -3 -0.795609 -3 0 
C -3 0.795609 -2.683901 1.55874 -2.12132 2.12132 
C -1.55874 2.683901 -0.795609 3 0 3 
z
" id="mceb95582fd" style="stroke:#00688b;"/>
    </defs>
    <g clip-path="url(#pb350940244)">
     <use style="fill:#00688b;stroke:#00688b;" x="346.333622" xlink:href="#mceb95582fd" y="296.660496"/>
    </g>
   </g>
   <g id="LineCollection_1">
    <path clip-path="url(#pb350940244)" d="M 401.489266 11.076923 
L 400.383336 11.296176 
L 399.418256 11.883001 
L 398.708791 12.766461 
L 398.343626 13.830484 
" style="fill:none;stroke:#1f77b4;"/>
    <path clip-path="url(#pb350940244)" d="M 398.343626 13.830484 
L 396.601265 13.824035 
L 394.170305 13.817586 
L 388.41634 13.946559 
L 367.361939 13.978802 
L 350.673875 14.152915 
L 341.503004 14.391514 
L 336.995818 14.430205 
" style="fill:none;stroke:#1f77b4;"/>
    <path clip-path="url(#pb350940244)" d="M 398.343626 13.830484 
L 398.359276 14.907403 
L 398.719225 15.926285 
L 399.397389 16.764606 
L 400.310303 17.338533 
L 401.35885 17.58358 
" style="fill:none;stroke:#1f77b4;"/>
    <path clip-path="url(#pb350940244)" d="M 615.930111 462.647968 
L 614.944164 466.56228 
L 611.913291 478.576059 
L 605.496811 507.143444 
L 603.827483 516.493943 
L 602.105988 532.228575 
L 601.949488 538.806167 
L 601.427823 564.923077 
" style="fill:none;stroke:#1f77b4;"/>
    <path clip-path="url(#pb350940244)" d="M 615.930111 462.647968 
L 608.052969 462.390023 
L 586.508203 457.682531 
L 557.493194 450.253721 
L 553.215541 449.157456 
" style="fill:none;stroke:#1f77b4;"/>
    <path clip-path="url(#pb350940244)" d="M 257.702733 317.231593 
L 295.226099 317.392809 
" style="fill:none;stroke:#1f77b4;"/>
    <path clip-path="url(#pb350940244)" d="M 257.702733 317.231593 
L 257.734033 310.957086 
L 257.890532 280.119787 
L 258.067898 245.7164 
" style="fill:none;stroke:#1f77b4;"/>
    <path clip-path="url(#pb350940244)" d="M 257.702733 317.231593 
L 225.046502 316.909162 
L 120.134447 317.934493 
" style="fill:none;stroke:#1f77b4;"/>
    <path clip-path="url(#pb350940244)" d="M 258.067898 245.7164 
L 258.250481 212.693019 
L 258.433064 179.360103 
" style="fill:none;stroke:#1f77b4;"/>
    <path clip-path="url(#pb350940244)" d="M 258.067898 245.7164 
L 257.890532 280.119787 
L 257.734033 310.957086 
L 257.702733 317.231593 
" style="fill:none;stroke:#1f77b4;"/>
    <path clip-path="url(#pb350940244)" d="M 258.067898 245.7164 
L 197.393038 245.013501 
L 129.780033 244.226769 
L 123.420936 243.955927 
" style="fill:none;stroke:#1f77b4;"/>
    <path clip-path="url(#pb350940244)" d="M 258.067898 245.7164 
L 306.51493 246.161355 
L 362.974736 246.683693 
L 395.625751 246.612759 
L 399.908621 246.599861 
" style="fill:none;stroke:#1f77b4;"/>
    <path clip-path="url(#pb350940244)" d="M 258.433064 179.360103 
L 258.798229 113.906613 
" style="fill:none;stroke:#1f77b4;"/>
    <path clip-path="url(#pb350940244)" d="M 258.433064 179.360103 
L 258.250481 212.693019 
L 258.067898 245.7164 
" style="fill:none;stroke:#1f77b4;"/>
    <path clip-path="url(#pb350940244)" d="M 258.433064 179.360103 
L 161.851999 178.566923 
L 156.604049 178.521783 
" style="fill:none;stroke:#1f77b4;"/>
    <path clip-path="url(#pb350940244)" d="M 258.433064 179.360103 
L 327.240682 180.133938 
L 332.04 180.198424 
L 394.639804 180.520855 
L 395.870933 180.578893 
L 400.22162 180.7788 
" style="fill:none;stroke:#1f77b4;"/>
    <path clip-path="url(#pb350940244)" d="M 258.798229 113.906613 
L 258.433064 179.360103 
" style="fill:none;stroke:#1f77b4;"/>
    <path clip-path="url(#pb350940244)" d="M 303.713589 539.644488 
L 301.653012 481.194198 
L 301.564329 478.685685 
" style="fill:none;stroke:#1f77b4;"/>
    <path clip-path="url(#pb350940244)" d="M 303.713589 539.644488 
L 300.520999 539.696077 
L 241.791949 540.676267 
" style="fill:none;stroke:#1f77b4;"/>
    <path clip-path="url(#pb350940244)" d="M 301.564329 478.685685 
L 301.329579 473.939501 
L 299.13337 429.263464 
L 298.966437 425.826349 
" style="fill:none;stroke:#1f77b4;"/>
    <path clip-path="url(#pb350940244)" d="M 301.564329 478.685685 
L 301.653012 481.194198 
L 303.713589 539.644488 
" style="fill:none;stroke:#1f77b4;"/>
    <path clip-path="url(#pb350940244)" d="M 301.564329 478.685685 
L 297.646624 478.685685 
L 243.179578 478.705031 
L 239.340123 478.705031 
" style="fill:none;stroke:#1f77b4;"/>
    <path clip-path="url(#pb350940244)" d="M 301.564329 478.685685 
L 346.161472 478.505124 
L 349.406229 479.465968 
L 352.374503 481.239339 
L 354.961962 483.883273 
L 355.812276 487.114031 
L 356.135708 491.37012 
L 356.579123 501.520248 
L 356.787789 513.933841 
" style="fill:none;stroke:#1f77b4;"/>
    <path clip-path="url(#pb350940244)" d="M 298.966437 425.826349 
L 298.773421 421.628298 
L 297.088443 384.684156 
" style="fill:none;stroke:#1f77b4;"/>
    <path clip-path="url(#pb350940244)" d="M 298.966437 425.826349 
L 299.13337 429.263464 
L 301.329579 473.939501 
L 301.564329 478.685685 
" style="fill:none;stroke:#1f77b4;"/>
    <path clip-path="url(#pb350940244)" d="M 298.966437 425.826349 
L 295.857313 425.865041 
L 259.49726 426.322893 
L 237.566462 426.600184 
" style="fill:none;stroke:#1f77b4;"/>
    <path clip-path="url(#pb350940244)" d="M 298.966437 425.826349 
L 302.717208 425.768312 
L 342.681967 425.117001 
L 394.452005 424.639803 
L 398.500125 424.601112 
" style="fill:none;stroke:#1f77b4;"/>
    <path clip-path="url(#pb350940244)" d="M 297.088443 384.684156 
L 351.659822 383.136487 
" style="fill:none;stroke:#1f77b4;"/>
    <path clip-path="url(#pb350940244)" d="M 297.088443 384.684156 
L 296.305945 366.434562 
L 295.340865 322.57105 
L 295.226099 317.392809 
" style="fill:none;stroke:#1f77b4;"/>
    <path clip-path="url(#pb350940244)" d="M 297.088443 384.684156 
L 298.773421 421.628298 
L 298.966437 425.826349 
" style="fill:none;stroke:#1f77b4;"/>
    <path clip-path="url(#pb350940244)" d="M 295.226099 317.392809 
L 257.702733 317.231593 
" style="fill:none;stroke:#1f77b4;"/>
    <path clip-path="url(#pb350940244)" d="M 295.226099 317.392809 
L 351.341606 318.1344 
" style="fill:none;stroke:#1f77b4;"/>
    <path clip-path="url(#pb350940244)" d="M 295.226099 317.392809 
L 295.340865 322.57105 
L 296.305945 366.434562 
L 297.088443 384.684156 
" style="fill:none;stroke:#1f77b4;"/>
    <path clip-path="url(#pb350940244)" d="M 86.857434 316.522245 
L 89.022344 312.143632 
L 100.94239 288.277291 
L 104.463629 281.73839 
" style="fill:none;stroke:#1f77b4;"/>
    <path clip-path="url(#pb350940244)" d="M 86.857434 316.522245 
L 92.428817 316.838227 
L 114.338748 317.702342 
L 120.134447 317.934493 
" style="fill:none;stroke:#1f77b4;"/>
    <path clip-path="url(#pb350940244)" d="M 481.481382 29.848855 
L 459.88445 25.315475 
L 441.010609 21.420509 
L 431.427622 19.344054 
L 426.685687 18.318723 
L 412.710281 15.474882 
L 406.711133 14.655907 
L 404.817489 14.397962 
" style="fill:none;stroke:#1f77b4;"/>
    <path clip-path="url(#pb350940244)" d="M 481.481382 29.848855 
L 517.945768 37.606545 
L 533.25142 41.22422 
L 546.501712 43.958435 
L 548.24929 44.319558 
L 552.062661 45.157878 
" style="fill:none;stroke:#1f77b4;"/>
    <path clip-path="url(#pb350940244)" d="M 239.340123 478.705031 
L 237.670795 429.611689 
L 237.566462 426.600184 
" style="fill:none;stroke:#1f77b4;"/>
    <path clip-path="url(#pb350940244)" d="M 239.340123 478.705031 
L 239.668772 487.068891 
L 241.791949 540.676267 
" style="fill:none;stroke:#1f77b4;"/>
    <path clip-path="url(#pb350940244)" d="M 239.340123 478.705031 
L 243.179578 478.705031 
L 297.646624 478.685685 
L 301.564329 478.685685 
" style="fill:none;stroke:#1f77b4;"/>
    <path clip-path="url(#pb350940244)" d="M 601.427823 564.923077 
L 601.949488 538.806167 
L 602.105988 532.228575 
L 603.827483 516.493943 
L 605.496811 507.143444 
L 611.913291 478.576059 
L 614.944164 466.56228 
L 615.930111 462.647968 
" style="fill:none;stroke:#1f77b4;"/>
    <path clip-path="url(#pb350940244)" d="M 582.726132 263.42431 
L 587.212451 263.540385 
L 608.094702 264.185247 
L 629.295169 264.746277 
L 633.301557 265.275064 
" style="fill:none;stroke:#1f77b4;"/>
    <path clip-path="url(#pb350940244)" d="M 582.726132 263.42431 
L 577.592948 263.327581 
L 548.807471 262.340942 
L 526.172426 261.947576 
L 511.304972 261.863744 
L 507.564634 261.702529 
" style="fill:none;stroke:#1f77b4;"/>
    <path clip-path="url(#pb350940244)" d="M 582.726132 263.42431 
L 588.198398 204.741871 
L 588.594864 201.736814 
" style="fill:none;stroke:#1f77b4;"/>
    <path clip-path="url(#pb350940244)" d="M 633.301557 265.275064 
L 629.295169 264.746277 
L 608.094702 264.185247 
L 587.212451 263.540385 
L 582.726132 263.42431 
" style="fill:none;stroke:#1f77b4;"/>
    <path clip-path="url(#pb350940244)" d="M 633.301557 265.275064 
L 624.386301 322.126096 
L 623.807253 325.356854 
" style="fill:none;stroke:#1f77b4;"/>
    <path clip-path="url(#pb350940244)" d="M 614.370333 33.537466 
L 610.097896 31.067644 
" style="fill:none;stroke:#1f77b4;"/>
    <path clip-path="url(#pb350940244)" d="M 614.370333 33.537466 
L 617.761156 31.635123 
L 622.017942 29.075021 
L 626.457312 23.838742 
" style="fill:none;stroke:#1f77b4;"/>
    <path clip-path="url(#pb350940244)" d="M 241.791949 540.676267 
L 195.744577 541.443652 
L 191.967722 541.540382 
" style="fill:none;stroke:#1f77b4;"/>
    <path clip-path="url(#pb350940244)" d="M 241.791949 540.676267 
L 300.520999 539.696077 
L 303.713589 539.644488 
" style="fill:none;stroke:#1f77b4;"/>
    <path clip-path="url(#pb350940244)" d="M 241.791949 540.676267 
L 239.668772 487.068891 
L 239.340123 478.705031 
" style="fill:none;stroke:#1f77b4;"/>
    <path clip-path="url(#pb350940244)" d="M 191.967722 541.540382 
L 188.096967 541.566176 
L 121.913324 542.546366 
L 117.792171 542.610853 
" style="fill:none;stroke:#1f77b4;"/>
    <path clip-path="url(#pb350940244)" d="M 191.967722 541.540382 
L 195.744577 541.443652 
L 241.791949 540.676267 
" style="fill:none;stroke:#1f77b4;"/>
    <path clip-path="url(#pb350940244)" d="M 191.967722 541.540382 
L 191.925989 538.625606 
L 190.820059 498.108928 
L 190.564443 488.919645 
L 188.968148 430.482253 
L 188.895115 427.18056 
" style="fill:none;stroke:#1f77b4;"/>
    <path clip-path="url(#pb350940244)" d="M 79.136792 543.255715 
L 113.107619 542.688236 
L 117.792171 542.610853 
" style="fill:none;stroke:#1f77b4;"/>
    <path clip-path="url(#pb350940244)" d="M 393.262608 555.662859 
L 394.436355 554.882576 
L 395.552718 553.296216 
L 396.043083 551.73565 
L 396.324782 550.0977 
L 398.437525 428.283274 
L 398.500125 424.601112 
" style="fill:none;stroke:#1f77b4;"/>
    <path clip-path="url(#pb350940244)" d="M 398.500125 424.601112 
L 398.547075 421.286521 
L 398.901807 388.766132 
L 399.073957 382.169194 
" style="fill:none;stroke:#1f77b4;"/>
    <path clip-path="url(#pb350940244)" d="M 398.500125 424.601112 
L 398.437525 428.283274 
L 396.324782 550.0977 
L 396.043083 551.73565 
L 395.552718 553.296216 
L 394.436355 554.882576 
L 393.262608 555.662859 
" style="fill:none;stroke:#1f77b4;"/>
    <path clip-path="url(#pb350940244)" d="M 398.500125 424.601112 
L 394.452005 424.639803 
L 342.681967 425.117001 
L 302.717208 425.768312 
L 298.966437 425.826349 
" style="fill:none;stroke:#1f77b4;"/>
    <path clip-path="url(#pb350940244)" d="M 398.500125 424.601112 
L 402.464779 424.581766 
L 445.189146 424.343167 
L 463.551755 425.117001 
L 466.869545 425.529713 
L 467.40686 425.632891 
L 471.115898 426.342239 
" style="fill:none;stroke:#1f77b4;"/>
    <path clip-path="url(#pb350940244)" d="M 399.073957 382.169194 
L 399.710388 324.215448 
L 399.778205 318.185989 
" style="fill:none;stroke:#1f77b4;"/>
    <path clip-path="url(#pb350940244)" d="M 399.073957 382.169194 
L 398.901807 388.766132 
L 398.547075 421.286521 
L 398.500125 424.601112 
" style="fill:none;stroke:#1f77b4;"/>
    <path clip-path="url(#pb350940244)" d="M 399.073957 382.169194 
L 367.466272 382.814056 
L 351.659822 383.136487 
" style="fill:none;stroke:#1f77b4;"/>
    <path clip-path="url(#pb350940244)" d="M 399.778205 318.185989 
L 399.788638 312.111389 
L 399.892971 258.433079 
" style="fill:none;stroke:#1f77b4;"/>
    <path clip-path="url(#pb350940244)" d="M 399.778205 318.185989 
L 399.710388 324.215448 
L 399.073957 382.169194 
" style="fill:none;stroke:#1f77b4;"/>
    <path clip-path="url(#pb350940244)" d="M 399.778205 318.185989 
L 395.625751 318.205335 
L 366.782891 318.327859 
L 351.341606 318.1344 
" style="fill:none;stroke:#1f77b4;"/>
    <path clip-path="url(#pb350940244)" d="M 399.778205 318.185989 
L 408.197878 318.805056 
L 422.861882 319.875527 
L 488.017845 323.873672 
L 491.278251 323.970401 
L 494.747324 324.06713 
" style="fill:none;stroke:#1f77b4;"/>
    <path clip-path="url(#pb350940244)" d="M 399.892971 258.433079 
L 399.908621 246.599861 
" style="fill:none;stroke:#1f77b4;"/>
    <path clip-path="url(#pb350940244)" d="M 399.892971 258.433079 
L 399.788638 312.111389 
L 399.778205 318.185989 
" style="fill:none;stroke:#1f77b4;"/>
    <path clip-path="url(#pb350940244)" d="M 399.892971 258.433079 
L 405.161788 258.639434 
L 437.531103 259.464858 
L 458.976753 260.058131 
L 488.883809 260.9029 
L 504.523327 261.708977 
L 507.564634 261.702529 
" style="fill:none;stroke:#1f77b4;"/>
    <path clip-path="url(#pb350940244)" d="M 399.908621 246.599861 
L 400.20597 197.745118 
" style="fill:none;stroke:#1f77b4;"/>
    <path clip-path="url(#pb350940244)" d="M 399.908621 246.599861 
L 399.892971 258.433079 
" style="fill:none;stroke:#1f77b4;"/>
    <path clip-path="url(#pb350940244)" d="M 399.908621 246.599861 
L 395.625751 246.612759 
L 362.974736 246.683693 
L 306.51493 246.161355 
L 258.067898 245.7164 
" style="fill:none;stroke:#1f77b4;"/>
    <path clip-path="url(#pb350940244)" d="M 400.20597 197.745118 
L 399.908621 246.599861 
" style="fill:none;stroke:#1f77b4;"/>
    <path clip-path="url(#pb350940244)" d="M 400.20597 197.745118 
L 400.14337 194.050059 
L 400.22162 180.7788 
" style="fill:none;stroke:#1f77b4;"/>
    <path clip-path="url(#pb350940244)" d="M 400.20597 197.745118 
L 405.43827 197.693529 
L 431.620638 198.041755 
L 468.173707 199.337927 
L 487.840479 199.692601 
L 517.512786 200.408398 
L 520.063728 200.472884 
" style="fill:none;stroke:#1f77b4;"/>
    <path clip-path="url(#pb350940244)" d="M 400.22162 180.7788 
L 400.670252 156.048343 
L 400.654602 135.683602 
" style="fill:none;stroke:#1f77b4;"/>
    <path clip-path="url(#pb350940244)" d="M 400.22162 180.7788 
L 400.14337 194.050059 
L 400.20597 197.745118 
" style="fill:none;stroke:#1f77b4;"/>
    <path clip-path="url(#pb350940244)" d="M 400.22162 180.7788 
L 395.870933 180.578893 
L 394.639804 180.520855 
L 332.04 180.198424 
L 327.240682 180.133938 
L 258.433064 179.360103 
" style="fill:none;stroke:#1f77b4;"/>
    <path clip-path="url(#pb350940244)" d="M 400.654602 135.683602 
L 400.884134 94.728418 
L 402.115264 54.72763 
L 401.400583 19.518166 
L 401.35885 17.58358 
" style="fill:none;stroke:#1f77b4;"/>
    <path clip-path="url(#pb350940244)" d="M 400.654602 135.683602 
L 400.670252 156.048343 
L 400.22162 180.7788 
" style="fill:none;stroke:#1f77b4;"/>
    <path clip-path="url(#pb350940244)" d="M 400.654602 135.683602 
L 453.379287 143.763723 
L 460.317432 140.797357 
" style="fill:none;stroke:#1f77b4;"/>
    <path clip-path="url(#pb350940244)" d="M 401.35885 17.58358 
L 401.400583 19.518166 
L 402.115264 54.72763 
L 400.884134 94.728418 
L 400.654602 135.683602 
" style="fill:none;stroke:#1f77b4;"/>
    <path clip-path="url(#pb350940244)" d="M 401.35885 17.58358 
L 402.40218 17.480402 
L 403.356827 17.048345 
L 404.123674 16.338997 
L 404.629689 15.423293 
L 404.817489 14.397962 
" style="fill:none;stroke:#1f77b4;"/>
    <path clip-path="url(#pb350940244)" d="M 85.840187 33.079614 
L 85.777587 39.238045 
L 86.02277 70.636375 
L 87.118267 78.761636 
L 88.370263 81.599028 
L 91.50547 84.965208 
L 97.134235 85.300536 
L 170.480339 83.598101 
L 199.359715 82.514732 
L 204.811115 82.308377 
" style="fill:none;stroke:#1f77b4;"/>
    <path clip-path="url(#pb350940244)" d="M 85.840187 33.079614 
L 93.675596 32.937744 
L 108.923865 31.854376 
L 144.115388 28.952497 
L 182.452552 25.805571 
L 197.669521 24.999493 
L 200.648228 24.857623 
L 206.42306 24.141827 
" style="fill:none;stroke:#1f77b4;"/>
    <path clip-path="url(#pb350940244)" d="M 618.56452 22.935935 
L 615.846645 26.037721 
L 612.930537 28.875114 
L 610.097896 31.067644 
" style="fill:none;stroke:#1f77b4;"/>
    <path clip-path="url(#pb350940244)" d="M 610.097896 31.067644 
L 608.230335 32.260639 
L 605.366394 33.846999 
L 600.645326 36.08467 
L 596.665022 39.07683 
" style="fill:none;stroke:#1f77b4;"/>
    <path clip-path="url(#pb350940244)" d="M 286.289976 80.631735 
L 219.923751 82.57277 
L 204.811115 82.308377 
" style="fill:none;stroke:#1f77b4;"/>
    <path clip-path="url(#pb350940244)" d="M 204.811115 82.308377 
L 199.359715 82.514732 
L 170.480339 83.598101 
L 97.134235 85.300536 
L 91.50547 84.965208 
L 88.370263 81.599028 
L 87.118267 78.761636 
L 86.02277 70.636375 
L 85.777587 39.238045 
L 85.840187 33.079614 
" style="fill:none;stroke:#1f77b4;"/>
    <path clip-path="url(#pb350940244)" d="M 204.811115 82.308377 
L 219.923751 82.57277 
L 286.289976 80.631735 
" style="fill:none;stroke:#1f77b4;"/>
    <path clip-path="url(#pb350940244)" d="M 204.811115 82.308377 
L 202.505355 87.564002 
L 200.371745 91.658875 
L 190.46011 111.565764 
L 187.956118 116.67952 
L 156.604049 178.521783 
" style="fill:none;stroke:#1f77b4;"/>
    <path clip-path="url(#pb350940244)" d="M 204.811115 82.308377 
L 205.014564 78.439205 
L 205.327563 73.989657 
L 205.118897 55.417632 
L 204.284233 30.912877 
L 206.42306 24.141827 
" style="fill:none;stroke:#1f77b4;"/>
    <path clip-path="url(#pb350940244)" d="M 500.798638 525.52201 
L 482.20128 521.298164 
L 476.68728 520.066478 
L 478.627874 511.78645 
" style="fill:none;stroke:#1f77b4;"/>
    <path clip-path="url(#pb350940244)" d="M 478.627874 511.78645 
L 482.576879 495.045834 
" style="fill:none;stroke:#1f77b4;"/>
    <path clip-path="url(#pb350940244)" d="M 478.627874 511.78645 
L 476.68728 520.066478 
L 482.20128 521.298164 
L 500.798638 525.52201 
" style="fill:none;stroke:#1f77b4;"/>
    <path clip-path="url(#pb350940244)" d="M 478.627874 511.78645 
L 456.592743 506.240637 
L 452.231624 505.144372 
" style="fill:none;stroke:#1f77b4;"/>
    <path clip-path="url(#pb350940244)" d="M 482.576879 495.045834 
L 478.627874 511.78645 
" style="fill:none;stroke:#1f77b4;"/>
    <path clip-path="url(#pb350940244)" d="M 452.231624 505.144372 
L 456.592743 506.240637 
L 478.627874 511.78645 
" style="fill:none;stroke:#1f77b4;"/>
    <path clip-path="url(#pb350940244)" d="M 237.566462 426.600184 
L 188.895115 427.18056 
" style="fill:none;stroke:#1f77b4;"/>
    <path clip-path="url(#pb350940244)" d="M 237.566462 426.600184 
L 259.49726 426.322893 
L 295.857313 425.865041 
L 298.966437 425.826349 
" style="fill:none;stroke:#1f77b4;"/>
    <path clip-path="url(#pb350940244)" d="M 237.566462 426.600184 
L 237.670795 429.611689 
L 239.340123 478.705031 
" style="fill:none;stroke:#1f77b4;"/>
    <path clip-path="url(#pb350940244)" d="M 188.895115 427.18056 
L 237.566462 426.600184 
" style="fill:none;stroke:#1f77b4;"/>
    <path clip-path="url(#pb350940244)" d="M 188.895115 427.18056 
L 188.968148 430.482253 
L 190.564443 488.919645 
L 190.820059 498.108928 
L 191.925989 538.625606 
L 191.967722 541.540382 
" style="fill:none;stroke:#1f77b4;"/>
    <path clip-path="url(#pb350940244)" d="M 188.895115 427.18056 
L 156.911831 427.638412 
L 152.795894 427.696449 
L 123.405286 427.748038 
L 118.000837 427.760935 
" style="fill:none;stroke:#1f77b4;"/>
    <path clip-path="url(#pb350940244)" d="M 563.236726 46.937697 
L 560.393652 49.291444 
L 557.336695 52.386781 
L 555.813433 54.153703 
L 553.904139 57.24904 
L 551.368847 62.021019 
L 546.256529 73.364141 
" style="fill:none;stroke:#1f77b4;"/>
    <path clip-path="url(#pb350940244)" d="M 563.236726 46.937697 
L 560.101519 46.557229 
L 554.895302 45.718908 
L 552.062661 45.157878 
" style="fill:none;stroke:#1f77b4;"/>
    <path clip-path="url(#pb350940244)" d="M 563.236726 46.937697 
L 565.907651 45.42872 
L 572.277181 43.145909 
L 578.876244 41.527305 
L 588.088848 40.334311 
L 593.482865 39.695897 
L 596.665022 39.07683 
" style="fill:none;stroke:#1f77b4;"/>
    <path clip-path="url(#pb350940244)" d="M 596.665022 39.07683 
L 601.51129 38.980101 
L 604.949062 37.800003 
L 608.564201 36.142708 
L 614.370333 33.537466 
" style="fill:none;stroke:#1f77b4;"/>
    <path clip-path="url(#pb350940244)" d="M 596.665022 39.07683 
L 593.482865 39.695897 
L 588.088848 40.334311 
L 578.876244 41.527305 
L 572.277181 43.145909 
L 565.907651 45.42872 
L 563.236726 46.937697 
" style="fill:none;stroke:#1f77b4;"/>
    <path clip-path="url(#pb350940244)" d="M 336.995818 14.430205 
L 326.155618 14.855814 
L 311.606381 15.900491 
L 287.114207 17.72545 
L 266.435405 19.369848 
L 234.697305 21.88481 
L 213.752454 23.509862 
L 206.42306 24.141827 
" style="fill:none;stroke:#1f77b4;"/>
    <path clip-path="url(#pb350940244)" d="M 336.995818 14.430205 
L 341.503004 14.391514 
L 350.673875 14.152915 
L 367.361939 13.978802 
L 388.41634 13.946559 
L 394.170305 13.817586 
L 396.601265 13.824035 
L 398.343626 13.830484 
" style="fill:none;stroke:#1f77b4;"/>
    <path clip-path="url(#pb350940244)" d="M 404.817489 14.397962 
L 406.711133 14.655907 
L 412.710281 15.474882 
L 426.685687 18.318723 
L 431.427622 19.344054 
L 441.010609 21.420509 
L 459.88445 25.315475 
L 481.481382 29.848855 
" style="fill:none;stroke:#1f77b4;"/>
    <path clip-path="url(#pb350940244)" d="M 404.817489 14.397962 
L 404.666206 13.359734 
L 404.201924 12.424685 
L 403.46116 11.689542 
L 402.522163 11.225241 
L 401.489266 11.076923 
" style="fill:none;stroke:#1f77b4;"/>
    <path clip-path="url(#pb350940244)" d="M 507.564634 261.702529 
L 511.304972 261.863744 
L 526.172426 261.947576 
L 548.807471 262.340942 
L 577.592948 263.327581 
L 582.726132 263.42431 
" style="fill:none;stroke:#1f77b4;"/>
    <path clip-path="url(#pb350940244)" d="M 507.564634 261.702529 
L 504.523327 261.708977 
L 488.883809 260.9029 
L 458.976753 260.058131 
L 437.531103 259.464858 
L 405.161788 258.639434 
L 399.892971 258.433079 
" style="fill:none;stroke:#1f77b4;"/>
    <path clip-path="url(#pb350940244)" d="M 507.564634 261.702529 
L 506.964719 264.462538 
L 505.712723 270.562932 
L 503.354797 282.086616 
L 495.644588 319.694966 
L 494.747324 324.06713 
" style="fill:none;stroke:#1f77b4;"/>
    <path clip-path="url(#pb350940244)" d="M 206.42306 24.141827 
L 204.284233 30.912877 
L 205.118897 55.417632 
L 205.327563 73.989657 
L 205.014564 78.439205 
L 204.811115 82.308377 
" style="fill:none;stroke:#1f77b4;"/>
    <path clip-path="url(#pb350940244)" d="M 206.42306 24.141827 
L 200.648228 24.857623 
L 197.669521 24.999493 
L 182.452552 25.805571 
L 144.115388 28.952497 
L 108.923865 31.854376 
L 93.675596 32.937744 
L 85.840187 33.079614 
" style="fill:none;stroke:#1f77b4;"/>
    <path clip-path="url(#pb350940244)" d="M 206.42306 24.141827 
L 213.752454 23.509862 
L 234.697305 21.88481 
L 266.435405 19.369848 
L 287.114207 17.72545 
L 311.606381 15.900491 
L 326.155618 14.855814 
L 336.995818 14.430205 
" style="fill:none;stroke:#1f77b4;"/>
    <path clip-path="url(#pb350940244)" d="M 104.463629 281.73839 
L 100.94239 288.277291 
L 89.022344 312.143632 
L 86.857434 316.522245 
" style="fill:none;stroke:#1f77b4;"/>
    <path clip-path="url(#pb350940244)" d="M 104.463629 281.73839 
L 108.955165 277.482301 
L 111.829539 275.870146 
L 115.992426 275.450986 
L 121.391659 275.928184 
" style="fill:none;stroke:#1f77b4;"/>
    <path clip-path="url(#pb350940244)" d="M 471.115898 426.342239 
L 467.40686 425.632891 
L 466.869545 425.529713 
L 463.551755 425.117001 
L 445.189146 424.343167 
L 402.464779 424.581766 
L 398.500125 424.601112 
" style="fill:none;stroke:#1f77b4;"/>
    <path clip-path="url(#pb350940244)" d="M 471.115898 426.342239 
L 475.164019 427.870562 
L 490.62617 433.693665 
L 510.658107 439.626396 
L 549.083954 448.228854 
L 553.215541 449.157456 
" style="fill:none;stroke:#1f77b4;"/>
    <path clip-path="url(#pb350940244)" d="M 471.115898 426.342239 
L 469.837819 431.681696 
L 455.486814 491.550682 
L 452.231624 505.144372 
" style="fill:none;stroke:#1f77b4;"/>
    <path clip-path="url(#pb350940244)" d="M 494.747324 324.06713 
L 491.278251 323.970401 
L 488.017845 323.873672 
L 422.861882 319.875527 
L 408.197878 318.805056 
L 399.778205 318.185989 
" style="fill:none;stroke:#1f77b4;"/>
    <path clip-path="url(#pb350940244)" d="M 494.747324 324.06713 
L 493.839627 328.471537 
L 490.730503 343.541962 
L 478.779157 393.899233 
L 471.115898 426.342239 
" style="fill:none;stroke:#1f77b4;"/>
    <path clip-path="url(#pb350940244)" d="M 494.747324 324.06713 
L 499.34841 324.176757 
L 499.990058 324.189654 
L 524.430064 324.776478 
L 543.225656 324.969937 
L 577.316466 325.318162 
L 581.34372 325.356854 
" style="fill:none;stroke:#1f77b4;"/>
    <path clip-path="url(#pb350940244)" d="M 520.063728 200.472884 
L 517.512786 200.408398 
L 487.840479 199.692601 
L 468.173707 199.337927 
L 431.620638 198.041755 
L 405.43827 197.693529 
L 400.20597 197.745118 
" style="fill:none;stroke:#1f77b4;"/>
    <path clip-path="url(#pb350940244)" d="M 520.063728 200.472884 
L 524.586564 200.659894 
L 583.607746 201.678776 
L 588.594864 201.736814 
" style="fill:none;stroke:#1f77b4;"/>
    <path clip-path="url(#pb350940244)" d="M 520.063728 200.472884 
L 519.589013 204.284019 
L 514.257596 228.949989 
L 508.028916 259.277848 
L 507.564634 261.702529 
" style="fill:none;stroke:#1f77b4;"/>
    <path clip-path="url(#pb350940244)" d="M 552.062661 45.157878 
L 550.643732 49.639669 
L 547.122493 66.03206 
L 546.256529 73.364141 
" style="fill:none;stroke:#1f77b4;"/>
    <path clip-path="url(#pb350940244)" d="M 552.062661 45.157878 
L 548.24929 44.319558 
L 546.501712 43.958435 
L 533.25142 41.22422 
L 517.945768 37.606545 
L 481.481382 29.848855 
" style="fill:none;stroke:#1f77b4;"/>
    <path clip-path="url(#pb350940244)" d="M 552.062661 45.157878 
L 554.895302 45.718908 
L 560.101519 46.557229 
L 563.236726 46.937697 
" style="fill:none;stroke:#1f77b4;"/>
    <path clip-path="url(#pb350940244)" d="M 356.787789 513.933841 
L 356.579123 501.520248 
L 356.135708 491.37012 
L 355.812276 487.114031 
L 354.961962 483.883273 
L 352.374503 481.239339 
L 349.406229 479.465968 
L 346.161472 478.505124 
L 301.564329 478.685685 
" style="fill:none;stroke:#1f77b4;"/>
    <path clip-path="url(#pb350940244)" d="M 117.792171 542.610853 
L 113.107619 542.688236 
L 79.136792 543.255715 
" style="fill:none;stroke:#1f77b4;"/>
    <path clip-path="url(#pb350940244)" d="M 117.792171 542.610853 
L 121.913324 542.546366 
L 188.096967 541.566176 
L 191.967722 541.540382 
" style="fill:none;stroke:#1f77b4;"/>
    <path clip-path="url(#pb350940244)" d="M 117.792171 542.610853 
L 117.797387 539.07056 
L 117.990403 432.881139 
L 118.000837 427.760935 
" style="fill:none;stroke:#1f77b4;"/>
    <path clip-path="url(#pb350940244)" d="M 118.000837 427.760935 
L 123.405286 427.748038 
L 152.795894 427.696449 
L 156.911831 427.638412 
L 188.895115 427.18056 
" style="fill:none;stroke:#1f77b4;"/>
    <path clip-path="url(#pb350940244)" d="M 118.000837 427.760935 
L 118.094736 422.963162 
L 118.736384 390.030061 
L 119.1485 368.749616 
L 120.040547 322.887033 
L 120.134447 317.934493 
" style="fill:none;stroke:#1f77b4;"/>
    <path clip-path="url(#pb350940244)" d="M 118.000837 427.760935 
L 117.990403 432.881139 
L 117.797387 539.07056 
L 117.792171 542.610853 
" style="fill:none;stroke:#1f77b4;"/>
    <path clip-path="url(#pb350940244)" d="M 120.134447 317.934493 
L 225.046502 316.909162 
L 257.702733 317.231593 
" style="fill:none;stroke:#1f77b4;"/>
    <path clip-path="url(#pb350940244)" d="M 120.134447 317.934493 
L 120.395279 310.325121 
L 121.308193 280.551844 
L 121.391659 275.928184 
" style="fill:none;stroke:#1f77b4;"/>
    <path clip-path="url(#pb350940244)" d="M 120.134447 317.934493 
L 114.338748 317.702342 
L 92.428817 316.838227 
L 86.857434 316.522245 
" style="fill:none;stroke:#1f77b4;"/>
    <path clip-path="url(#pb350940244)" d="M 120.134447 317.934493 
L 120.040547 322.887033 
L 119.1485 368.749616 
L 118.736384 390.030061 
L 118.094736 422.963162 
L 118.000837 427.760935 
" style="fill:none;stroke:#1f77b4;"/>
    <path clip-path="url(#pb350940244)" d="M 123.420936 243.955927 
L 120.619595 249.488843 
" style="fill:none;stroke:#1f77b4;"/>
    <path clip-path="url(#pb350940244)" d="M 123.420936 243.955927 
L 129.780033 244.226769 
L 197.393038 245.013501 
L 258.067898 245.7164 
" style="fill:none;stroke:#1f77b4;"/>
    <path clip-path="url(#pb350940244)" d="M 123.420936 243.955927 
L 132.555291 226.306055 
L 140.933231 209.655719 
L 156.604049 178.521783 
" style="fill:none;stroke:#1f77b4;"/>
    <path clip-path="url(#pb350940244)" d="M 553.215541 449.157456 
L 549.083954 448.228854 
L 510.658107 439.626396 
L 490.62617 433.693665 
L 475.164019 427.870562 
L 471.115898 426.342239 
" style="fill:none;stroke:#1f77b4;"/>
    <path clip-path="url(#pb350940244)" d="M 553.215541 449.157456 
L 557.493194 450.253721 
L 586.508203 457.682531 
L 608.052969 462.390023 
L 615.930111 462.647968 
" style="fill:none;stroke:#1f77b4;"/>
    <path clip-path="url(#pb350940244)" d="M 553.215541 449.157456 
L 553.992822 446.036324 
L 562.955027 406.570771 
L 569.272391 379.38339 
" style="fill:none;stroke:#1f77b4;"/>
    <path clip-path="url(#pb350940244)" d="M 546.256529 73.364141 
L 539.047119 110.366321 
L 534.4043 133.329856 
L 523.313701 185.666854 
L 520.658426 197.545211 
L 520.063728 200.472884 
" style="fill:none;stroke:#1f77b4;"/>
    <path clip-path="url(#pb350940244)" d="M 121.391659 275.928184 
L 122.226323 256.679054 
L 120.619595 249.488843 
" style="fill:none;stroke:#1f77b4;"/>
    <path clip-path="url(#pb350940244)" d="M 121.391659 275.928184 
L 121.308193 280.551844 
L 120.395279 310.325121 
L 120.134447 317.934493 
" style="fill:none;stroke:#1f77b4;"/>
    <path clip-path="url(#pb350940244)" d="M 351.341606 318.1344 
L 295.226099 317.392809 
" style="fill:none;stroke:#1f77b4;"/>
    <path clip-path="url(#pb350940244)" d="M 351.341606 318.1344 
L 351.341606 324.58302 
L 351.028607 338.254094 
L 351.237273 355.729853 
L 351.25814 357.090512 
L 351.659822 383.136487 
" style="fill:none;stroke:#1f77b4;"/>
    <path clip-path="url(#pb350940244)" d="M 351.341606 318.1344 
L 366.782891 318.327859 
L 395.625751 318.205335 
L 399.778205 318.185989 
" style="fill:none;stroke:#1f77b4;"/>
    <path clip-path="url(#pb350940244)" d="M 156.604049 178.521783 
L 161.851999 178.566923 
L 258.433064 179.360103 
" style="fill:none;stroke:#1f77b4;"/>
    <path clip-path="url(#pb350940244)" d="M 156.604049 178.521783 
L 140.933231 209.655719 
L 132.555291 226.306055 
L 123.420936 243.955927 
" style="fill:none;stroke:#1f77b4;"/>
    <path clip-path="url(#pb350940244)" d="M 156.604049 178.521783 
L 187.956118 116.67952 
L 190.46011 111.565764 
L 200.371745 91.658875 
L 202.505355 87.564002 
L 204.811115 82.308377 
" style="fill:none;stroke:#1f77b4;"/>
    <path clip-path="url(#pb350940244)" d="M 460.317432 140.797357 
L 453.379287 143.763723 
L 400.654602 135.683602 
" style="fill:none;stroke:#1f77b4;"/>
    <path clip-path="url(#pb350940244)" d="M 120.619595 249.488843 
L 123.420936 243.955927 
" style="fill:none;stroke:#1f77b4;"/>
    <path clip-path="url(#pb350940244)" d="M 120.619595 249.488843 
L 122.226323 256.679054 
L 121.391659 275.928184 
" style="fill:none;stroke:#1f77b4;"/>
    <path clip-path="url(#pb350940244)" d="M 120.619595 249.488843 
L 117.040973 254.64129 
L 106.513773 274.82547 
L 104.463629 281.73839 
" style="fill:none;stroke:#1f77b4;"/>
    <path clip-path="url(#pb350940244)" d="M 569.272391 379.38339 
L 575.615837 351.215819 
L 580.561222 329.264718 
L 581.34372 325.356854 
" style="fill:none;stroke:#1f77b4;"/>
    <path clip-path="url(#pb350940244)" d="M 581.34372 325.356854 
L 577.316466 325.318162 
L 543.225656 324.969937 
L 524.430064 324.776478 
L 499.990058 324.189654 
L 499.34841 324.176757 
L 494.747324 324.06713 
" style="fill:none;stroke:#1f77b4;"/>
    <path clip-path="url(#pb350940244)" d="M 581.34372 325.356854 
L 585.840472 325.356854 
L 623.807253 325.356854 
" style="fill:none;stroke:#1f77b4;"/>
    <path clip-path="url(#pb350940244)" d="M 581.34372 325.356854 
L 581.547169 320.997587 
L 582.126217 304.979216 
L 582.23055 276.992206 
L 582.621799 266.822733 
L 582.726132 263.42431 
" style="fill:none;stroke:#1f77b4;"/>
    <path clip-path="url(#pb350940244)" d="M 588.594864 201.736814 
L 583.607746 201.678776 
L 524.586564 200.659894 
L 520.063728 200.472884 
" style="fill:none;stroke:#1f77b4;"/>
    <path clip-path="url(#pb350940244)" d="M 588.594864 201.736814 
L 590.911056 186.750222 
L 603.498834 126.352449 
L 616.639576 60.944099 
" style="fill:none;stroke:#1f77b4;"/>
    <path clip-path="url(#pb350940244)" d="M 623.807253 325.356854 
L 624.386301 322.126096 
L 633.301557 265.275064 
" style="fill:none;stroke:#1f77b4;"/>
    <path clip-path="url(#pb350940244)" d="M 623.807253 325.356854 
L 585.840472 325.356854 
L 581.34372 325.356854 
" style="fill:none;stroke:#1f77b4;"/>
    <path clip-path="url(#pb350940244)" d="M 616.639576 60.944099 
L 618.084588 45.016009 
L 618.209788 42.372075 
L 617.995905 39.657206 
L 617.36469 37.496918 
L 616.524809 35.858969 
L 615.220647 34.362889 
L 614.370333 33.537466 
" style="fill:none;stroke:#1f77b4;"/>
    <path clip-path="url(#pb350940244)" d="M 616.639576 60.944099 
L 621.042429 48.865835 
L 624.386301 33.131203 
L 625.330515 29.352311 
L 626.457312 23.838742 
" style="fill:none;stroke:#1f77b4;"/>
    <path clip-path="url(#pb350940244)" d="M 626.457312 23.838742 
L 618.56452 22.935935 
" style="fill:none;stroke:#1f77b4;"/>
    <path clip-path="url(#pb350940244)" d="M 351.659822 383.136487 
L 297.088443 384.684156 
" style="fill:none;stroke:#1f77b4;"/>
    <path clip-path="url(#pb350940244)" d="M 351.659822 383.136487 
L 367.466272 382.814056 
L 399.073957 382.169194 
" style="fill:none;stroke:#1f77b4;"/>
    <path clip-path="url(#pb350940244)" d="M 351.659822 383.136487 
L 351.25814 357.090512 
L 351.237273 355.729853 
L 351.028607 338.254094 
L 351.341606 324.58302 
L 351.341606 318.1344 
" style="fill:none;stroke:#1f77b4;"/>
   </g>
  </g>
 </g>
 <defs>
  <clipPath id="pb350940244">
   <rect height="576" width="576.331356" x="68.053496" y="0"/>
  </clipPath>
 </defs>
</svg>
